P2
# CREATOR: GIMP PNM Filter Version 1.1
10 10
255
255
255
255
255
255
255
255
255
255
255
255
255
254
255
255
255
255
254
255
255
255
255
255
239
172
143
191
255
254
255
255
255
255
121
16
0
60
241
255
255
255
255
255
83
0
0
38
218
255
255
255
255
255
126
3
0
38
217
255
255
255
255
255
151
13
2
59
234
255
255
255
255
255
246
163
149
195
255
254
255
255
255
254
255
255
255
255
254
254
255
255
255
255
255
255
255
255
255
255
255
