P2
# CREATOR: GIMP PNM Filter Version 1.1
20 20
255
255
255
255
255
255
255
255
255
255
255
255
255
255
255
255
255
255
255
255
255
255
255
255
255
255
255
255
255
255
255
255
255
255
255
255
255
255
255
255
255
255
255
255
255
255
255
255
255
255
254
255
255
255
255
255
255
255
255
255
255
255
255
255
255
255
255
254
254
254
255
254
254
254
254
255
255
255
255
255
255
255
255
255
255
255
254
254
255
249
243
227
226
252
254
255
255
255
255
255
255
255
255
255
255
255
254
253
130
56
40
24
20
106
251
255
254
255
255
255
255
255
255
255
255
255
254
214
10
0
0
0
0
28
233
254
255
255
255
255
255
255
255
255
255
254
255
166
0
0
0
0
0
1
186
255
254
255
255
255
255
255
255
255
255
254
255
161
0
0
0
0
0
0
181
255
255
255
255
255
255
255
255
255
255
254
254
220
20
0
0
0
0
0
181
255
255
255
255
255
255
255
255
255
255
254
255
210
10
0
0
0
0
0
182
255
255
255
255
255
255
255
255
255
255
255
255
211
10
0
0
0
0
0
178
255
255
255
255
255
255
255
255
255
255
255
255
227
16
0
0
0
0
8
210
255
255
255
255
255
255
255
255
255
255
255
254
252
197
10
0
0
0
125
251
254
255
255
255
255
255
255
255
255
255
255
254
254
254
255
182
241
222
255
254
254
255
255
255
255
255
255
255
255
255
254
255
254
254
254
255
255
255
254
254
255
254
255
255
255
255
255
255
255
255
255
255
255
255
255
254
254
255
254
255
254
255
255
255
255
255
255
255
255
255
255
255
255
255
255
255
255
255
255
255
255
255
255
255
255
255
255
255
255
255
255
255
255
255
255
255
255
255
255
255
255
255
255
255
255
255
255
255
255
255
255
255
255
255
255
255
255
255
255
255
255
255
255
255
255
255
