P2
# CREATOR: GIMP PNM Filter Version 1.1
30 30
255
255
255
255
255
255
255
255
255
255
255
255
255
255
255
255
255
255
255
255
255
255
255
255
255
255
255
255
255
255
255
255
255
255
255
255
255
255
255
255
255
255
255
255
255
255
255
255
255
255
255
255
255
255
255
255
255
255
255
255
255
255
255
255
255
255
255
255
255
255
255
255
255
255
255
255
255
255
255
255
255
255
255
255
255
255
255
255
255
255
255
255
255
255
255
255
255
255
255
255
255
255
255
255
255
255
255
255
255
255
255
255
255
255
255
255
255
255
255
255
255
255
255
255
255
255
255
255
255
255
255
255
255
255
255
255
255
255
255
255
255
255
255
255
255
255
255
255
255
255
255
255
255
255
255
255
255
255
255
255
255
254
255
255
255
255
254
255
254
255
254
255
255
255
255
255
255
255
255
255
255
255
255
255
255
255
255
255
255
255
255
254
254
255
255
255
253
244
253
255
254
255
255
255
255
255
255
255
255
255
255
255
255
255
255
255
255
255
255
254
254
255
255
217
171
179
142
64
139
213
255
254
255
255
255
255
255
255
255
255
255
255
255
255
255
255
255
255
255
255
255
214
59
25
6
8
4
0
3
36
211
255
255
255
255
255
255
255
255
255
255
255
255
255
255
255
255
255
255
254
249
106
0
0
0
0
0
0
0
6
164
255
254
255
255
255
255
255
255
255
255
255
255
255
255
255
255
255
255
254
232
41
0
0
0
0
0
0
0
0
69
240
255
255
255
255
255
255
255
255
255
255
255
255
255
255
255
255
254
255
206
0
0
0
0
0
0
0
0
0
26
224
255
255
255
255
255
255
255
255
255
255
255
255
255
255
255
255
255
255
203
0
0
0
0
0
0
0
0
0
25
224
255
255
255
255
255
255
255
255
255
255
255
255
255
255
255
255
254
255
222
20
0
0
0
0
0
0
0
0
25
224
255
255
255
255
255
255
255
255
255
255
255
255
255
255
255
255
255
254
252
127
2
0
0
0
0
0
0
0
25
224
255
255
255
255
255
255
255
255
255
255
255
255
255
255
255
255
254
255
245
73
0
0
0
0
0
0
0
0
25
224
255
255
255
255
255
255
255
255
255
255
255
255
255
255
255
255
255
255
246
77
0
0
0
0
0
0
0
0
25
224
255
255
255
255
255
255
255
255
255
255
255
255
255
255
255
255
255
255
245
75
0
0
0
0
0
0
0
0
22
222
255
255
255
255
255
255
255
255
255
255
255
255
255
255
255
255
255
255
250
103
0
0
0
0
0
0
0
0
62
240
255
255
255
255
255
255
255
255
255
255
255
255
255
255
255
255
255
254
255
182
0
0
0
0
0
0
0
0
126
253
254
255
255
255
255
255
255
255
255
255
255
255
255
255
255
255
255
255
254
253
222
55
0
0
0
0
0
125
252
254
255
255
255
255
255
255
255
255
255
255
255
255
255
255
255
255
255
254
254
254
254
255
196
148
231
151
213
255
254
255
254
255
255
255
255
255
255
255
255
255
255
255
255
255
255
255
255
255
255
255
254
255
255
255
255
255
255
254
254
255
255
255
255
255
255
255
255
255
255
255
255
255
255
255
255
255
255
255
255
254
255
254
255
255
255
255
254
255
255
254
255
255
255
255
255
255
255
255
255
255
255
255
255
255
255
255
255
255
255
255
255
255
255
255
255
255
255
255
255
255
255
255
255
255
255
255
255
255
255
255
255
255
255
255
255
255
255
255
255
255
255
255
255
255
255
255
255
255
255
255
255
255
255
255
255
255
255
255
255
255
255
255
255
255
255
255
255
255
255
255
255
255
255
255
255
255
255
255
255
255
255
255
255
255
255
255
255
255
255
255
255
255
255
255
255
255
255
255
255
255
255
255
255
255
255
255
255
255
255
255
255
255
255
255
255
255
255
255
255
255
255
255
255
255
255
255
255
255
255
255
255
255
255
255
255
255
255
255
255
255
255
255
255
255
255
255
255
255
255
255
255
255
255
255
255
255
255
255
255
255
255
255
255
255
255
255
255
255
255
255
255
255
255
255
255
255
255
255
255
