P2
# CREATOR: GIMP PNM Filter Version 1.1
5 5
255
255
254
255
255
255
254
223
67
189
255
255
184
0
124
255
254
234
65
188
255
255
254
255
255
254
